<svg id="visual" viewBox="0 0 900 300" width="900" height="300" xmlns="http://www.w3.org/2000/svg" xmlns:xlink="http://www.w3.org/1999/xlink" version="1.1"><rect x="0" y="0" width="900" height="300" fill="#fff"></rect><path d="M0 68L64 55L129 84L193 30L257 44L321 38L386 67L450 52L514 58L579 29L643 35L707 49L771 66L836 77L900 76L900 301L836 301L771 301L707 301L643 301L579 301L514 301L450 301L386 301L321 301L257 301L193 301L129 301L64 301L0 301Z" fill="#71acff"></path><path d="M0 134L64 128L129 96L193 133L257 114L321 112L386 116L450 86L514 122L579 96L643 133L707 110L771 79L836 130L900 129L900 301L836 301L771 301L707 301L643 301L579 301L514 301L450 301L386 301L321 301L257 301L193 301L129 301L64 301L0 301Z" fill="#5d9fff"></path><path d="M0 141L64 136L129 134L193 165L257 147L321 177L386 166L450 180L514 155L579 167L643 153L707 147L771 159L836 169L900 170L900 301L836 301L771 301L707 301L643 301L579 301L514 301L450 301L386 301L321 301L257 301L193 301L129 301L64 301L0 301Z" fill="#4892ff"></path><path d="M0 178L64 211L129 216L193 192L257 205L321 222L386 183L450 197L514 204L579 202L643 178L707 178L771 213L836 186L900 202L900 301L836 301L771 301L707 301L643 301L579 301L514 301L450 301L386 301L321 301L257 301L193 301L129 301L64 301L0 301Z" fill="#3185ff"></path><path d="M0 242L64 259L129 237L193 227L257 238L321 238L386 247L450 259L514 244L579 226L643 245L707 262L771 239L836 243L900 231L900 301L836 301L771 301L707 301L643 301L579 301L514 301L450 301L386 301L321 301L257 301L193 301L129 301L64 301L0 301Z" fill="#1677ff"></path></svg>